<svg width="200" height="189" viewBox="0 0 200 189" fill="none" xmlns="http://www.w3.org/2000/svg">
<g clip-path="url(#clip0_8097_33806)">
<path d="M39.296 18.0742H10.3516V55.6668H39.296V18.0742Z" fill="#0158FF"/>
<path d="M143.388 121.575H132.536V86.4264C132.536 72.1671 120.943 60.5745 106.684 60.5745C92.4249 60.5745 80.8323 72.1671 80.8323 86.4264V121.575H69.9805V86.4264C69.9805 66.1856 86.4434 49.7227 106.684 49.7227C126.925 49.7227 143.388 66.1856 143.388 86.4264V121.575Z" fill="#EAB308"/>
<path d="M146.963 121.574H66.4077C62.1299 121.574 58.6484 125.037 58.6484 129.333V159.833C58.6484 175.537 71.3707 188.259 87.0744 188.259H126.278C141.982 188.259 154.704 175.537 154.704 159.833V129.333C154.704 125.056 151.241 121.574 146.945 121.574H146.963ZM110.426 161.926C110.426 163.833 108.871 165.389 106.963 165.389H106.408C104.5 165.389 102.945 163.833 102.945 161.926V147.111C102.945 145.204 104.5 143.648 106.408 143.648H106.963C108.871 143.648 110.426 145.204 110.426 147.111V161.926Z" fill="#0158FF"/>
<path d="M165.629 77.8519H154.573C153.685 77.8519 152.962 77.1296 152.962 76.2407V71.5555C152.962 71.4444 152.888 71.3704 152.777 71.3333C151.925 71.1296 151.073 70.9074 150.24 70.6481C150.129 70.6111 150.018 70.6481 149.981 70.7407L147.648 74.7963C147.425 75.1667 147.092 75.4444 146.666 75.5555C146.24 75.6667 145.814 75.6111 145.444 75.3889C145.11 75.2037 144.999 74.7778 145.185 74.4444C145.37 74.1111 145.796 74 146.129 74.1852C146.222 74.2407 146.388 74.1852 146.444 74.1111L148.777 70.0556C149.147 69.4074 149.925 69.0926 150.666 69.3333C151.462 69.5741 152.277 69.7963 153.092 69.9815C153.833 70.1481 154.351 70.7963 154.351 71.5555V76.2407C154.351 76.3704 154.462 76.463 154.573 76.463H165.629C165.759 76.463 165.851 76.3518 165.851 76.2407V71.5555C165.851 70.7963 166.37 70.1481 167.11 69.9815C167.925 69.7963 168.74 69.5741 169.536 69.3333C170.259 69.1111 171.036 69.4074 171.425 70.0556L173.759 74.1111C173.759 74.1111 173.981 74.2407 174.073 74.1852L183.74 68.5185C183.74 68.5185 183.759 68.4074 183.722 68.3519L181.37 64.2963C180.999 63.6481 181.11 62.8148 181.685 62.2963C182.296 61.7222 182.888 61.1296 183.462 60.5185C183.981 59.963 184.796 59.8333 185.462 60.2037L189.518 62.5556C189.629 62.6111 189.759 62.5741 189.833 62.463L195.351 52.8889C195.407 52.7778 195.37 52.6481 195.277 52.5741L191.222 50.2407C190.573 49.8704 190.259 49.0926 190.499 48.3519C190.74 47.5556 190.962 46.7407 191.147 45.9259C191.314 45.1852 191.962 44.6667 192.722 44.6667H197.407C197.536 44.6667 197.629 44.5556 197.629 44.4444V33.3889C197.629 33.2593 197.518 33.1667 197.407 33.1667H192.722C191.962 33.1667 191.314 32.6481 191.147 31.9074C190.962 31.0926 190.74 30.2778 190.499 29.4815C190.277 28.7593 190.573 27.9815 191.222 27.5926L195.277 25.2593C195.388 25.2037 195.425 25.0556 195.351 24.9444L189.833 15.3704C189.777 15.2778 189.61 15.2222 189.518 15.2778L185.462 17.6296C184.814 18 183.981 17.8889 183.462 17.3148C182.888 16.7037 182.296 16.1111 181.685 15.537C181.129 15.0185 180.999 14.2037 181.37 13.537L183.722 9.48148C183.722 9.48148 183.759 9.33333 183.74 9.31482L183.629 9.18519L174.055 3.66667C173.944 3.61111 173.814 3.64815 173.74 3.74074L171.407 7.7963C171.036 8.44444 170.259 8.75926 169.518 8.51852C168.722 8.27778 167.907 8.05556 167.092 7.87037C166.351 7.7037 165.833 7.05556 165.833 6.2963V1.61111C165.833 1.48148 165.722 1.38889 165.61 1.38889H154.555C154.425 1.38889 154.333 1.5 154.333 1.61111V6.2963C154.333 7.05556 153.814 7.7037 153.073 7.87037C152.24 8.05556 151.444 8.27778 150.629 8.51852C149.907 8.74074 149.129 8.44444 148.74 7.7963L146.407 3.74074C146.351 3.64815 146.185 3.61111 146.092 3.66667L136.518 9.18519C136.407 9.24074 136.37 9.38889 136.444 9.5L138.796 13.5556C139.166 14.2037 139.055 15.037 138.481 15.5556C137.87 16.1296 137.277 16.7222 136.703 17.3333C136.185 17.8889 135.37 18.0185 134.703 17.6481L130.648 15.2963C130.536 15.2407 130.407 15.2778 130.333 15.3889L124.814 24.963C124.759 25.0741 124.796 25.2037 124.907 25.2778L128.962 27.6111C129.61 27.9815 129.925 28.7593 129.685 29.5C129.444 30.2963 129.222 31.1111 129.036 31.9259C128.87 32.6667 128.222 33.1852 127.462 33.1852H122.777C122.648 33.1852 122.555 33.2963 122.555 33.4074V44.463C122.555 44.5926 122.666 44.6852 122.777 44.6852H127.462C128.222 44.6852 128.87 45.2037 129.036 45.9444C129.222 46.7593 129.444 47.5741 129.685 48.3704C129.907 49.0926 129.61 49.8704 128.962 50.2593C128.629 50.4444 128.203 50.3333 128.018 50C127.833 49.6667 127.944 49.2407 128.277 49.0556C128.37 49 128.407 48.8889 128.37 48.7963C128.11 47.963 127.888 47.1111 127.685 46.2593C127.666 46.1481 127.573 46.0741 127.462 46.0741H122.777C121.888 46.0741 121.166 45.3519 121.166 44.463V33.4074C121.166 32.5185 121.888 31.7963 122.777 31.7963H127.462C127.573 31.7963 127.647 31.7222 127.685 31.6111C127.888 30.7593 128.11 29.9074 128.37 29.0741C128.407 28.963 128.37 28.8704 128.277 28.8148L124.222 26.4815C123.444 26.037 123.185 25.037 123.629 24.2778L129.147 14.7037C129.37 14.3333 129.722 14.0556 130.129 13.9444C130.536 13.8333 130.981 13.8889 131.351 14.1111L135.407 16.463C135.407 16.463 135.61 16.5 135.685 16.4074C136.277 15.7593 136.907 15.1481 137.536 14.5556C137.61 14.4815 137.629 14.3704 137.592 14.2778L135.24 10.2222C135.018 9.85185 134.962 9.40741 135.073 9C135.185 8.57407 135.462 8.24074 135.833 8.01852L145.407 2.5C145.777 2.27778 146.222 2.22222 146.629 2.33333C147.055 2.44444 147.388 2.72222 147.61 3.09259L149.944 7.14815C149.944 7.14815 150.092 7.27778 150.203 7.24074C151.036 6.98148 151.888 6.75926 152.74 6.55556C152.851 6.53704 152.925 6.44444 152.925 6.33333V1.61111C152.925 0.722222 153.647 0 154.536 0H165.592C166.481 0 167.203 0.722222 167.203 1.61111V6.2963C167.203 6.40741 167.277 6.48148 167.388 6.51852C168.24 6.72222 169.092 6.94444 169.925 7.2037C170.036 7.24074 170.147 7.2037 170.185 7.11111L172.518 3.05556C172.962 2.27778 173.962 2.01852 174.722 2.46296L184.296 7.98148C184.666 8.2037 184.944 8.53704 185.055 8.96296C185.166 9.38889 185.11 9.81481 184.888 10.1852L182.536 14.2407C182.536 14.2407 182.499 14.4444 182.592 14.5185C183.24 15.1111 183.851 15.7407 184.444 16.3704C184.518 16.4444 184.629 16.463 184.722 16.4259L188.777 14.0741C189.555 13.6296 190.536 13.8889 190.981 14.6667L196.499 24.2407C196.944 25.0185 196.685 26 195.907 26.4444L191.851 28.7778C191.851 28.7778 191.722 28.9444 191.759 29.037C192.018 29.8704 192.24 30.7222 192.444 31.5741C192.462 31.6852 192.555 31.7593 192.666 31.7593H197.351C198.24 31.7593 198.962 32.4815 198.962 33.3704V44.4259C198.962 45.3148 198.24 46.037 197.351 46.037H192.666C192.555 46.037 192.481 46.1111 192.444 46.2222C192.24 47.0741 192.018 47.9259 191.759 48.7593C191.722 48.8704 191.759 48.9815 191.851 49.0185L195.907 51.3518C196.277 51.5741 196.555 51.9259 196.666 52.3333C196.777 52.7593 196.722 53.1852 196.499 53.5556L190.981 63.1296C190.536 63.9074 189.536 64.1667 188.777 63.7222L184.722 61.3704C184.722 61.3704 184.518 61.3333 184.444 61.4259C183.851 62.0741 183.24 62.6852 182.592 63.2778C182.518 63.3518 182.499 63.463 182.536 63.5556L184.888 67.6111C185.11 67.9815 185.166 68.4259 185.055 68.8333C184.944 69.2593 184.666 69.5926 184.296 69.8148L174.722 75.3333C173.944 75.7778 172.962 75.5185 172.518 74.7407L170.185 70.6852C170.185 70.6852 170.018 70.5555 169.925 70.5926C169.092 70.8519 168.24 71.0741 167.388 71.2778C167.277 71.2963 167.203 71.3889 167.203 71.5V76.1852C167.203 77.0741 166.481 77.7963 165.592 77.7963L165.629 77.8519Z" fill="#030712"/>
<path d="M160.109 57.6106C149.813 57.6106 141.424 49.2217 141.424 38.9254C141.424 28.6291 149.813 20.2402 160.109 20.2402C170.405 20.2402 178.794 28.6291 178.794 38.9254C178.794 49.2217 170.405 57.6106 160.109 57.6106ZM160.109 21.6291C150.572 21.6291 142.813 29.3884 142.813 38.9254C142.813 48.4625 150.572 56.2217 160.109 56.2217C169.646 56.2217 177.405 48.4625 177.405 38.9254C177.405 29.3884 169.646 21.6291 160.109 21.6291Z" fill="#030712"/>
<path d="M138.371 43.5185C138.038 43.5185 137.741 43.2778 137.686 42.9445C137.445 41.6296 137.334 40.2778 137.334 38.9259C137.334 36.3148 137.778 33.7593 138.63 31.3148C138.76 30.963 139.149 30.7593 139.519 30.8889C139.871 31.0185 140.075 31.4074 139.945 31.7778C139.13 34.0741 138.723 36.463 138.723 38.9259C138.723 40.1852 138.834 41.463 139.056 42.7037C139.13 43.0741 138.871 43.4445 138.501 43.5185C138.464 43.5185 138.427 43.5185 138.371 43.5185Z" fill="#030712"/>
<path d="M169.295 19.5558C169.203 19.5558 169.091 19.5373 168.999 19.5003C166.203 18.2225 163.203 17.5558 160.091 17.5558C159.703 17.5558 159.406 17.241 159.406 16.8521C159.406 16.4633 159.721 16.1484 160.091 16.1484C163.406 16.1484 166.591 16.8521 169.573 18.2225C169.925 18.3892 170.073 18.7966 169.906 19.1484C169.795 19.4077 169.536 19.5558 169.277 19.5558H169.295Z" fill="#030712"/>
<path d="M142.112 26.8333C141.964 26.8333 141.835 26.7963 141.705 26.7037C141.39 26.4815 141.316 26.0555 141.538 25.7407C144.89 21.0185 149.853 17.7963 155.483 16.6296C155.872 16.5555 156.223 16.7963 156.298 17.1666C156.372 17.537 156.131 17.9074 155.76 17.9815C150.464 19.074 145.816 22.1111 142.668 26.537C142.538 26.7222 142.316 26.8333 142.094 26.8333H142.112Z" fill="#030712"/>
<path d="M41.188 140.629C21.7436 140.629 5.94727 124.814 5.94727 105.388C5.94727 85.9623 21.5954 70.3142 40.8917 70.1475C44.4287 37.9068 71.4473 13.6846 103.984 13.6846C108.762 13.6846 113.521 14.2216 118.132 15.2772C118.503 15.3698 118.744 15.7401 118.651 16.1105C118.558 16.4809 118.207 16.7216 117.818 16.629C113.299 15.592 108.651 15.0735 103.966 15.0735C71.9287 15.0735 45.3732 39.0735 42.188 70.9253C42.151 71.2772 41.8547 71.5549 41.5028 71.5549L41.188 70.8512V71.5549C22.5213 71.5549 7.33615 86.7401 7.33615 105.407C7.33615 124.073 22.5213 139.259 41.188 139.259H46.8732C47.2991 139.259 47.5769 139.555 47.5769 139.944C47.5769 140.333 47.2621 140.648 46.8917 140.648H41.188V140.629Z" fill="#030712"/>
<path d="M164.703 50.2597C164.703 50.2597 164.592 50.2597 164.536 50.2412C162.981 49.8523 161.388 49.5375 159.796 49.3153C159.573 49.2783 159.37 49.1486 159.277 48.9449C156.907 44.3153 153.962 39.982 150.499 36.0746C150.24 35.7783 150.277 35.3523 150.555 35.0931C150.851 34.8338 151.277 34.8708 151.536 35.1486C154.981 39.056 157.944 43.3708 160.351 48.0005C161.87 48.2227 163.388 48.5375 164.87 48.9079C165.24 49.0005 165.462 49.3709 165.37 49.7597C165.296 50.0746 164.999 50.2783 164.703 50.2783V50.2597Z" fill="#030712"/>
<path d="M159.019 140.074C158.667 140.074 158.37 139.815 158.333 139.463C158.296 139.074 158.574 138.741 158.945 138.704C164.463 138.093 169.574 136.593 174.167 134.223C189.241 126.426 198.611 111.037 198.611 94.0744C198.611 86.6114 196.759 79.204 193.241 72.6855C193.056 72.3521 193.185 71.9262 193.519 71.741C193.852 71.5558 194.278 71.6855 194.463 72.0188C198.093 78.741 200 86.3706 200 94.0744C200 111.556 190.352 127.408 174.815 135.463C170.074 137.908 164.796 139.482 159.111 140.093C159.093 140.093 159.056 140.093 159.037 140.093L159.019 140.074Z" fill="#030712"/>
<path d="M122.572 185.26H83.3679C67.3124 185.26 54.2383 172.186 54.2383 156.13V125.63C54.2383 120.963 58.0346 117.186 62.6827 117.186H143.238C147.905 117.186 151.683 120.982 151.683 125.63V156.13C151.683 172.186 138.609 185.26 122.553 185.26H122.572ZM62.6827 118.574C58.7938 118.574 55.6272 121.741 55.6272 125.63V156.13C55.6272 171.426 68.0716 183.871 83.3679 183.871H122.572C137.868 183.871 150.312 171.426 150.312 156.13V125.63C150.312 121.741 147.146 118.574 143.257 118.574H62.7012H62.6827Z" fill="#030712"/>
<path d="M139.686 118.574H128.834C128.446 118.574 128.149 118.259 128.149 117.87V82.7219C128.149 68.8515 116.872 57.5737 103.001 57.5737C89.1308 57.5737 77.853 68.8515 77.853 82.7219V117.87C77.853 118.259 77.5382 118.574 77.1493 118.574H66.2975C65.9086 118.574 65.5938 118.259 65.5938 117.87V82.7219C65.5938 62.0922 82.3715 45.3145 103.001 45.3145C123.631 45.3145 140.409 62.0922 140.409 82.7219V117.87C140.409 118.259 140.094 118.574 139.723 118.574H139.686ZM129.52 117.185H138.983V82.7219C138.983 62.87 122.834 46.7033 102.964 46.7033C83.0938 46.7033 66.9456 62.8515 66.9456 82.7219V117.185H76.4086V82.7219C76.4086 68.0922 88.316 56.1848 102.946 56.1848C117.575 56.1848 129.483 68.0922 129.483 82.7219V117.185H129.52Z" fill="#030712"/>
<path d="M103.261 162.388H102.706C100.409 162.388 98.5391 160.518 98.5391 158.222V143.407C98.5391 141.111 100.409 139.24 102.706 139.24H103.261C105.558 139.24 107.428 141.111 107.428 143.407V158.222C107.428 160.518 105.558 162.388 103.261 162.388ZM102.706 140.629C101.169 140.629 99.928 141.87 99.928 143.407V158.222C99.928 159.759 101.169 160.999 102.706 160.999H103.261C104.798 160.999 106.039 159.759 106.039 158.222V143.407C106.039 141.87 104.798 140.629 103.261 140.629H102.706Z" fill="#030712"/>
<path d="M35.5954 52.666H6.65097C6.26208 52.666 5.94727 52.3512 5.94727 51.9623V14.3697C5.94727 13.9808 6.26208 13.666 6.65097 13.666H35.5954C35.9843 13.666 36.2991 13.9808 36.2991 14.3697V51.9623C36.2991 52.3512 35.9843 52.666 35.5954 52.666ZM7.33615 51.2771H34.8917V15.0549H7.33615V51.2586V51.2771Z" fill="#030712"/>
<path d="M31.4794 73.018C31.2942 73.018 31.1275 72.944 30.9794 72.8143L20.6275 62.4625C20.4979 62.3329 20.4238 62.1477 20.4238 61.9625V51.9625C20.4238 51.5736 20.7386 51.2588 21.1275 51.2588C21.5164 51.2588 21.8312 51.5736 21.8312 51.9625V61.6662L31.9794 71.8143C32.2572 72.0921 32.2572 72.518 31.9794 72.7958C31.8498 72.9255 31.6646 72.9995 31.4794 72.9995V73.018Z" fill="#030712"/>
<path d="M21.11 15.0552C20.7211 15.0552 20.4062 14.7404 20.4062 14.3515V6.53671C20.4062 6.14782 20.7211 5.83301 21.11 5.83301C21.4988 5.83301 21.8137 6.14782 21.8137 6.53671V14.37C21.8137 14.7589 21.4988 15.0737 21.11 15.0737V15.0552Z" fill="#030712"/>
<path d="M15.4068 15.0552C15.0179 15.0552 14.7031 14.7404 14.7031 14.3515V6.53671C14.7031 6.14782 15.0179 5.83301 15.4068 5.83301C15.7957 5.83301 16.1105 6.14782 16.1105 6.53671V14.37C16.1105 14.7589 15.7957 15.0737 15.4068 15.0737V15.0552Z" fill="#030712"/>
<path d="M26.8131 15.0552C26.4242 15.0552 26.1094 14.7404 26.1094 14.3515V6.53671C26.1094 6.14782 26.4242 5.83301 26.8131 5.83301C27.202 5.83301 27.5168 6.14782 27.5168 6.53671V14.37C27.5168 14.7589 27.202 15.0737 26.8131 15.0737V15.0552Z" fill="#030712"/>
<path d="M41.5368 33.8703H35.5924C35.2035 33.8703 34.8887 33.5555 34.8887 33.1666C34.8887 32.7777 35.2035 32.4629 35.5924 32.4629H41.5368C41.9257 32.4629 42.2405 32.7777 42.2405 33.1666C42.2405 33.5555 41.9257 33.8703 41.5368 33.8703Z" fill="#030712"/>
<path d="M6.64815 33.8703H0.703704C0.314815 33.8703 0 33.5555 0 33.1666C0 32.7777 0.314815 32.4629 0.703704 32.4629H6.64815C7.03704 32.4629 7.35185 32.7777 7.35185 33.1666C7.35185 33.5555 7.03704 33.8703 6.64815 33.8703Z" fill="#030712"/>
<path d="M41.5368 39.5744H35.5924C35.2035 39.5744 34.8887 39.2596 34.8887 38.8707C34.8887 38.4818 35.2035 38.167 35.5924 38.167H41.5368C41.9257 38.167 42.2405 38.4818 42.2405 38.8707C42.2405 39.2596 41.9257 39.5744 41.5368 39.5744Z" fill="#030712"/>
<path d="M6.64815 39.5744H0.703704C0.314815 39.5744 0 39.2596 0 38.8707C0 38.4818 0.314815 38.167 0.703704 38.167H6.64815C7.03704 38.167 7.35185 38.4818 7.35185 38.8707C7.35185 39.2596 7.03704 39.5744 6.64815 39.5744Z" fill="#030712"/>
<path d="M41.5368 28.1476H35.5924C35.2035 28.1476 34.8887 27.8328 34.8887 27.4439C34.8887 27.055 35.2035 26.7402 35.5924 26.7402H41.5368C41.9257 26.7402 42.2405 27.055 42.2405 27.4439C42.2405 27.8328 41.9257 28.1476 41.5368 28.1476Z" fill="#030712"/>
<path d="M6.64815 28.1476H0.703704C0.314815 28.1476 0 27.8328 0 27.4439C0 27.055 0.314815 26.7402 0.703704 26.7402H6.64815C7.03704 26.7402 7.35185 27.055 7.35185 27.4439C7.35185 27.8328 7.03704 28.1476 6.64815 28.1476Z" fill="#030712"/>
<path d="M162.611 158.648H151C150.611 158.648 150.314 158.333 150.314 157.944C150.314 157.556 150.629 157.241 151 157.241H162.314L174.37 145.185C174.5 145.056 174.685 144.981 174.87 144.981H199.314C199.703 144.981 200 145.296 200 145.685C200 146.074 199.685 146.389 199.314 146.389H175.166L163.111 158.444C162.981 158.574 162.796 158.648 162.611 158.648Z" fill="#030712"/>
<path d="M198.332 174.408H192.295C192.11 174.408 191.943 174.334 191.795 174.204L186.128 168.537H167.036C166.85 168.537 166.684 168.463 166.536 168.334L156.628 158.426C156.35 158.148 156.35 157.722 156.628 157.445C156.906 157.167 157.332 157.167 157.61 157.445L167.313 167.148H186.406C186.591 167.148 186.758 167.222 186.906 167.352L192.573 173.019H198.332C198.721 173.019 199.017 173.334 199.017 173.722C199.017 174.111 198.702 174.426 198.332 174.426V174.408Z" fill="#030712"/>
<path d="M54.9443 158.648H27.4999C27.3147 158.648 27.148 158.574 26.9999 158.444L13.4073 144.852H6.62948C6.2406 144.852 5.92578 144.537 5.92578 144.148C5.92578 143.759 6.2406 143.444 6.62948 143.444H13.685C13.8702 143.444 14.0369 143.518 14.185 143.648L27.7776 157.241H54.9258C55.3147 157.241 55.6295 157.555 55.6295 157.944C55.6295 158.333 55.3147 158.648 54.9258 158.648H54.9443Z" fill="#030712"/>
<path d="M26.5399 171.5H6.65097C6.26208 171.5 5.94727 171.185 5.94727 170.797C5.94727 170.408 6.26208 170.093 6.65097 170.093H26.2621L38.9102 157.445C39.188 157.167 39.6139 157.167 39.8917 157.445C40.1695 157.722 40.1695 158.148 39.8917 158.426L27.0399 171.278C26.9102 171.408 26.725 171.482 26.5399 171.482V171.5Z" fill="#030712"/>
</g>
<defs>
<clipPath id="clip0_8097_33806">
<rect width="200" height="188.259" fill="white"/>
</clipPath>
</defs>
</svg>
