<svg width="220" height="220" viewBox="0 0 220 220" fill="none" xmlns="http://www.w3.org/2000/svg">
<g clip-path="url(#clip0_8578_40841)">
<path d="M220 0H0V220H220V0Z" fill="white"/>
<path d="M192.462 11.8911H179.82V24.533H192.462V11.8911Z" fill="#0158FF"/>
<path d="M26.0224 13.8311L16.0703 31.0688H35.9744L26.0224 13.8311Z" fill="#0158FF"/>
<path d="M201.39 204.096C204.112 201.374 204.112 196.962 201.39 194.24C198.668 191.518 194.256 191.518 191.534 194.24C188.812 196.962 188.812 201.374 191.534 204.096C194.256 206.818 198.668 206.818 201.39 204.096Z" fill="#0158FF"/>
<path d="M14.4071 132.432L10.168 136.671L11.7755 138.278L16.0146 134.039L14.4071 132.432Z" fill="#111827"/>
<path d="M22.2274 124.613L17.9883 128.853L19.5958 130.46L23.8349 126.221L22.2274 124.613Z" fill="#111827"/>
<path d="M19.5958 132.432L17.9883 134.04L22.2274 138.279L23.8349 136.671L19.5958 132.432Z" fill="#111827"/>
<path d="M11.7755 124.613L10.168 126.221L14.4071 130.46L16.0146 128.852L11.7755 124.613Z" fill="#111827"/>
<path d="M200.02 99.3698L195.781 103.609L197.389 105.216L201.628 100.977L200.02 99.3698Z" fill="#111827"/>
<path d="M207.841 91.5509L203.602 95.79L205.209 97.3975L209.448 93.1584L207.841 91.5509Z" fill="#111827"/>
<path d="M205.205 99.3676L203.598 100.975L207.837 105.214L209.444 103.607L205.205 99.3676Z" fill="#111827"/>
<path d="M197.389 91.5488L195.781 93.1562L200.02 97.3954L201.628 95.7879L197.389 91.5488Z" fill="#111827"/>
<path d="M99.4618 14.9538L95.2227 19.1929L96.8301 20.8004L101.069 16.5613L99.4618 14.9538Z" fill="#111827"/>
<path d="M107.282 7.13492L103.043 11.374L104.65 12.9815L108.89 8.74241L107.282 7.13492Z" fill="#111827"/>
<path d="M104.65 14.9535L103.043 16.561L107.282 20.8001L108.89 19.1927L104.65 14.9535Z" fill="#111827"/>
<path d="M96.8301 7.13519L95.2227 8.74268L99.4618 12.9818L101.069 11.3743L96.8301 7.13519Z" fill="#111827"/>
<path d="M57.6171 196.972H55.3438V211.8H57.6171V196.972Z" fill="#111827"/>
<path d="M63.8944 203.25H49.0664V205.523H63.8944V203.25Z" fill="#111827"/>
<path d="M196.939 21.2698H184.297C183.669 21.2698 183.16 20.7608 183.16 20.1331V7.49116C183.16 6.86343 183.669 6.35449 184.297 6.35449H196.939C197.566 6.35449 198.075 6.86343 198.075 7.49116V20.1331C198.075 20.7608 197.566 21.2698 196.939 21.2698ZM185.433 18.9964H195.802V8.62783H185.433V18.9964Z" fill="#111827"/>
<path d="M40.4476 27.8048H20.5427C20.1365 27.8048 19.7617 27.5884 19.5586 27.2364C19.3555 26.8844 19.3555 26.4518 19.5586 26.0998L29.5107 8.8613C29.7138 8.5093 30.0893 8.29297 30.4948 8.29297C30.9003 8.29297 31.2758 8.5093 31.4789 8.8613L41.431 26.0998C41.6341 26.4518 41.6341 26.8844 41.431 27.2364C41.2279 27.5884 40.8524 27.8048 40.4469 27.8048H40.4476ZM22.5117 25.5314H38.4793L30.4955 11.703L22.5117 25.5314Z" fill="#111827"/>
<path d="M200.934 202.875C196.465 202.875 192.828 199.238 192.828 194.768C192.828 190.299 196.465 186.662 200.934 186.662C205.404 186.662 209.041 190.299 209.041 194.768C209.041 199.238 205.404 202.875 200.934 202.875ZM200.934 188.936C197.718 188.936 195.101 191.553 195.101 194.769C195.101 197.986 197.718 200.602 200.934 200.602C204.151 200.602 206.767 197.986 206.767 194.769C206.767 191.553 204.151 188.936 200.934 188.936Z" fill="#111827"/>
<path d="M156.123 95.2944H143.102V111.137H156.123V95.2944Z" fill="#EAB308"/>
<path d="M60.0437 103.221V103.247C60.0716 107.598 63.6341 111.138 67.9857 111.138H78.1724V95.2954H67.985C63.618 95.2954 60.0554 98.8477 60.043 103.221L60.0437 103.221Z" fill="#EAB308"/>
<path d="M155.549 113.449H67.9314C65.5173 113.437 63.2682 112.618 61.4268 111.081L60.043 109.926V146.091L61.3094 145.357C62.166 144.86 63.0658 144.411 63.9824 144.023C66.9231 142.78 70.0464 142.149 73.2657 142.149C76.485 142.149 79.6083 142.78 82.549 144.023C85.3892 145.225 87.9397 146.943 90.1294 149.134C92.3192 151.324 94.0381 153.874 95.24 156.714C96.4838 159.657 97.1152 162.781 97.1152 165.998C97.1152 169.216 96.4845 172.34 95.2408 175.282C94.8638 176.173 94.429 177.049 93.9472 177.886L93.2204 179.15H155.549C159.289 179.15 162.332 176.107 162.332 172.367V159.868H153.057C149.433 159.868 146.025 158.457 143.462 155.895C140.9 153.332 139.488 149.924 139.488 146.3C139.488 142.676 140.899 139.268 143.461 136.705C146.024 134.143 149.432 132.731 153.056 132.731H162.331V120.231C162.331 116.492 159.289 113.449 155.549 113.449H155.549Z" fill="#EAB308"/>
<path d="M162.329 135.043H153.054C146.847 135.043 141.797 140.092 141.797 146.299C141.797 152.506 146.847 157.556 153.054 157.556H162.329V135.043ZM152.552 152.558C149.101 152.558 146.294 149.75 146.294 146.299C146.294 142.848 149.101 140.041 152.552 140.041C156.003 140.041 158.81 142.848 158.81 146.299C158.81 149.75 156.003 152.558 152.552 152.558Z" fill="#EAB308"/>
<path d="M80.4766 111.137H96.6869L95.0288 109.663C94.6754 109.349 94.3278 109.022 93.9941 108.688C93.0532 107.748 92.1886 106.725 91.423 105.646C90.5665 104.439 89.8207 103.14 89.2047 101.787C89.1145 101.589 89.0294 101.394 88.951 101.209C87.7234 98.3054 87.1008 95.2232 87.1008 92.0479C87.1008 88.8725 87.7234 85.7903 88.951 82.8878C90.136 80.0857 91.833 77.5689 93.9941 75.4085C96.1545 73.2474 98.6713 71.5505 101.473 70.3654C104.376 69.1378 107.457 68.5152 110.633 68.5152C113.809 68.5152 116.891 69.1378 119.794 70.3654C122.596 71.5505 125.113 73.2474 127.273 75.4085C129.434 77.5697 131.131 80.0857 132.317 82.8878C133.543 85.7889 134.166 88.8711 134.166 92.0479C134.166 95.2247 133.544 98.3069 132.317 101.209C132.238 101.395 132.153 101.589 132.064 101.787C131.449 103.139 130.703 104.438 129.845 105.646C129.082 106.722 128.217 107.745 127.274 108.688C126.941 109.021 126.594 109.349 126.24 109.663L124.582 111.137H140.792V38.4038H80.4773V111.137L80.4766 111.137ZM110.634 65.3384C107.547 65.3384 105.035 62.8267 105.035 59.7394C105.035 56.6521 107.547 54.1404 110.634 54.1404C113.721 54.1404 116.233 56.6521 116.233 59.7394C116.233 62.8267 113.721 65.3384 110.634 65.3384ZM84.1315 53.5347V51.2613H88.4024C91.0542 51.2613 93.2124 49.1039 93.2124 46.4514V42.1797H128.058V46.4521C128.058 49.1039 130.216 51.2613 132.867 51.2613H137.139V67.6719C137.139 70.0273 135.223 71.9435 132.867 71.9435C130.512 71.9435 128.596 70.0273 128.596 67.6719V59.1043C126.661 58.4517 124.9 57.3597 123.43 55.8887C121.959 54.4176 120.867 52.6569 120.214 50.7223H101.056C100.403 52.6569 99.3115 54.4176 97.8404 55.8887C96.3694 57.3597 94.6094 58.4517 92.6748 59.1043V67.6719C92.6748 70.0273 90.7586 71.9435 88.4032 71.9435C86.0477 71.9435 84.1315 70.0273 84.1315 67.6719V53.5347Z" fill="#EAB308"/>
<path d="M90.57 178.809C93.3405 175.078 94.805 170.648 94.805 165.998C94.805 154.122 85.1433 144.46 73.2677 144.46C68.5847 144.46 64.1289 145.944 60.3823 148.75C58.8181 149.921 57.4189 151.299 56.2221 152.847C53.2837 156.646 51.7305 161.194 51.7305 165.997C51.7305 177.873 61.3921 187.534 73.2677 187.534C75.709 187.534 78.1055 187.127 80.3913 186.324C82.6001 185.548 84.6593 184.418 86.5139 182.969C88.0473 181.769 89.4121 180.369 90.57 178.808V178.809ZM72.0915 161.064C72.2418 161.228 72.4281 161.345 72.6767 161.431C73.2083 161.616 73.9747 161.818 74.9544 162.03L75.0835 162.058L75.1854 162.093C75.2375 162.104 75.2881 162.114 75.3365 162.124L75.3555 162.129L75.3695 162.132L75.3834 162.135C75.4164 162.142 75.4443 162.148 75.4699 162.153L75.4978 162.158L75.5249 162.164C77.0275 162.492 78.2705 162.895 79.3265 163.393C80.604 163.996 81.6725 164.952 82.5019 166.235C83.3393 167.53 83.7639 169.213 83.7639 171.236V171.269C83.7639 173.237 83.3437 174.944 82.5151 176.344C81.6453 177.811 80.3547 178.918 78.6775 179.636C78.3446 179.779 77.9941 179.906 77.6281 180.018V183.304H69.4903V180.128C68.3045 179.809 67.1877 179.341 66.1713 178.736C65.1402 178.124 64.2001 177.362 63.3765 176.471L62.0712 175.06L63.2475 173.538L65.5091 170.612L67.195 168.431L69.0151 170.501C69.6245 171.194 70.2669 171.696 70.9812 172.037C71.6647 172.364 72.3936 172.522 73.2098 172.522C74.5643 172.522 75.082 172.234 75.2426 172.109C75.3159 172.053 75.5095 171.903 75.5095 171.221V171.204C75.5095 170.946 75.4714 170.832 75.4597 170.804C75.3841 170.715 75.2536 170.591 74.9852 170.486C74.5423 170.313 73.9365 170.154 73.1863 170.014C73.0873 170.002 72.9883 169.983 72.8908 169.959C72.86 169.953 72.8299 169.947 72.7991 169.941C72.7463 169.931 72.6943 169.92 72.6415 169.909C71.0105 169.607 69.7001 169.266 68.636 168.867C67.2837 168.36 66.1302 167.458 65.2084 166.187C64.2639 164.886 63.785 163.127 63.785 160.96V160.944C63.785 158.953 64.1832 157.226 64.9679 155.81C65.8031 154.301 67.0505 153.158 68.6763 152.41C68.9367 152.29 69.208 152.181 69.4889 152.082V148.694H77.6267V151.884C78.2823 152.068 78.9357 152.306 79.5773 152.593C80.4581 152.989 81.3249 153.48 82.1528 154.054L83.9957 155.331L82.7453 157.191L80.7331 160.184L79.4468 162.098L77.5519 160.784C76.8889 160.325 76.2465 159.984 75.6437 159.77C75.093 159.575 74.554 159.477 74.0407 159.477C72.8109 159.477 72.3716 159.753 72.2667 159.838C72.211 159.884 72.0401 160.021 72.0401 160.646V160.663C72.0401 160.897 72.0739 161.026 72.0907 161.067L72.0915 161.064Z" fill="#EAB308"/>
<path d="M104.7 102.833C105.548 103.337 106.471 103.722 107.468 103.989C108.466 104.256 108.965 104.388 108.965 104.388H109.131V107.081H112.723V104.246C113.63 104.118 114.439 103.902 115.151 103.598C116.381 103.071 117.307 102.284 117.928 101.236C118.548 100.188 118.859 98.8831 118.859 97.3204V97.2874C118.859 95.7019 118.56 94.4472 117.961 93.521C117.363 92.5955 116.617 91.9216 115.725 91.5007C114.832 91.0797 113.726 90.7248 112.407 90.4366C112.352 90.4256 112.299 90.4146 112.25 90.4036C112.2 90.3926 112.147 90.3816 112.092 90.3706C112.036 90.3596 111.989 90.3486 111.95 90.3376C111.911 90.3266 111.876 90.3156 111.843 90.3046C110.767 90.0721 109.918 89.8477 109.298 89.6314C108.677 89.4158 108.162 89.077 107.752 88.6172C107.341 88.1574 107.136 87.5223 107.136 86.7135V86.6966C107.136 85.5548 107.494 84.6961 108.209 84.1197C108.924 83.5433 109.99 83.2543 111.41 83.2543C112.186 83.2543 112.973 83.3959 113.771 83.6782C114.57 83.9605 115.384 84.3903 116.215 84.9674L118.228 81.9747C117.508 81.4753 116.77 81.058 116.016 80.7192C115.262 80.3811 114.5 80.1289 113.73 79.9631C113.395 79.8905 113.06 79.8355 112.724 79.7945V77.0195H109.133V79.892C108.338 80.0269 107.625 80.2389 106.996 80.5285C105.816 81.0719 104.926 81.8837 104.327 82.9647C103.728 84.0456 103.429 85.3898 103.429 86.9973V87.0141C103.429 88.6993 103.759 89.9966 104.419 90.9052C105.078 91.8145 105.874 92.443 106.805 92.7928C107.736 93.1419 108.95 93.455 110.446 93.7315C110.501 93.7425 110.557 93.7542 110.612 93.7645C110.667 93.7755 110.723 93.7872 110.778 93.7975C110.811 93.8085 110.842 93.8143 110.87 93.8143C110.899 93.8143 110.928 93.8202 110.961 93.8312C111.859 93.9977 112.599 94.1942 113.181 94.4215C113.763 94.6489 114.237 94.9869 114.603 95.4357C114.968 95.8845 115.151 96.4917 115.151 97.2566V97.2735C115.151 98.471 114.769 99.3664 114.004 99.9589C113.24 100.552 112.097 100.848 110.578 100.848C109.425 100.848 108.356 100.612 107.369 100.142C106.382 99.6707 105.485 98.9755 104.676 98.0552L102.414 100.981C103.09 101.713 103.852 102.331 104.701 102.835L104.7 102.833Z" fill="#EAB308"/>
<path d="M162.066 107.97V89.3549H146.735V32.4644H81.8729V89.3549H71.1787L71.1508 89.3674C65.7645 89.6284 61.4503 94.0952 61.4349 99.5475V99.568V99.5886V99.6054C61.44 100.279 61.4349 106.26 61.4349 106.26V144.266C60.2044 145.323 59.0824 146.504 58.0872 147.791C54.8386 151.991 53.1211 157.02 53.1211 162.331C53.1211 175.46 63.8021 186.142 76.9317 186.142C79.6296 186.142 82.2806 185.691 84.8092 184.802C87.2512 183.944 89.5289 182.696 91.5786 181.093C92.8494 180.099 94.0147 178.981 95.0575 177.757H159.215C164.208 177.757 168.271 173.694 168.271 168.701V116.565C168.271 112.568 165.666 109.167 162.066 107.971V107.97ZM146.771 91.6282H159.792V107.47H146.771V91.6282ZM84.1462 34.7377H144.461V107.47H128.251L129.909 105.996C130.263 105.683 130.61 105.355 130.943 105.022C131.886 104.079 132.751 103.056 133.514 101.98C134.371 100.771 135.118 99.4727 135.733 98.1204C135.823 97.9224 135.908 97.7281 135.986 97.5433C137.213 94.6408 137.835 91.5585 137.835 88.3817C137.835 85.2049 137.213 82.1228 135.986 79.2217C134.8 76.4196 133.103 73.9028 130.942 71.7424C128.782 69.5813 126.265 67.8844 123.463 66.6993C120.56 65.4717 117.478 64.8491 114.302 64.8491C111.127 64.8491 108.045 65.4717 105.142 66.6993C102.34 67.8844 99.8234 69.5813 97.663 71.7424C95.5012 73.9036 93.805 76.4196 92.6199 79.2217C91.3923 82.1242 90.7697 85.2064 90.7697 88.3817C90.7697 91.5571 91.3923 94.6393 92.6199 97.5426C92.6984 97.7281 92.7834 97.9224 92.8736 98.1204C93.4889 99.4742 94.2354 100.773 95.092 101.98C95.8576 103.059 96.7229 104.082 97.663 105.022C97.996 105.355 98.3443 105.683 98.6978 105.997L100.356 107.471H84.1455V34.7377H84.1462ZM123.757 107.382L123.579 107.471H105.029L104.85 107.382C102.656 106.286 100.681 104.829 98.9794 103.052C97.7745 101.793 96.7273 100.392 95.8678 98.889C94.044 95.7019 93.0804 92.069 93.0804 88.3825C93.0804 76.68 102.601 67.1591 114.304 67.1591C126.006 67.1591 135.527 76.68 135.527 88.3825C135.527 92.069 134.563 95.7019 132.739 98.889C131.878 100.394 130.832 101.795 129.628 103.052C127.927 104.83 125.951 106.286 123.756 107.382H123.757ZM71.6502 91.6282H81.8377V107.47H71.6502C67.2986 107.47 63.7361 103.931 63.7082 99.5798V99.5534C63.7207 95.1798 67.2832 91.6275 71.6502 91.6275V91.6282ZM94.2332 175.142C93.0753 176.703 91.7106 178.102 90.1772 179.303C88.3233 180.752 86.2634 181.881 84.0546 182.658C81.7688 183.461 79.3722 183.868 76.931 183.868C65.0554 183.868 55.3937 174.207 55.3937 162.331C55.3937 157.528 56.9469 152.98 59.8854 149.181C61.0822 147.633 62.4821 146.255 64.0456 145.084C67.7922 142.277 72.2479 140.795 76.931 140.795C88.8066 140.795 98.4682 150.456 98.4682 162.332C98.4682 166.982 97.0038 171.412 94.2332 175.143V175.142ZM165.997 153.889H156.722C150.515 153.889 145.465 148.839 145.465 142.632C145.465 136.425 150.515 131.376 156.722 131.376H165.997V153.889ZM165.997 129.065H156.722C153.098 129.065 149.69 130.476 147.127 133.039C144.565 135.602 143.154 139.01 143.154 142.634C143.154 146.258 144.565 149.665 147.128 152.228C149.691 154.79 153.099 156.201 156.723 156.201H165.998V168.701C165.998 172.441 162.955 175.483 159.215 175.483H96.8864L97.6132 174.22C98.0942 173.383 98.5291 172.507 98.9068 171.615C100.15 168.673 100.781 165.549 100.781 162.332C100.781 159.115 100.15 155.991 98.906 153.048C97.7041 150.208 95.9852 147.658 93.7954 145.467C91.6057 143.278 89.0544 141.558 86.215 140.357C83.2743 139.113 80.1518 138.482 76.9317 138.482C73.7116 138.482 70.5891 139.113 67.6484 140.357C66.731 140.745 65.832 141.193 64.9754 141.69L63.709 142.424V106.26L65.0928 107.415C66.9342 108.951 69.1833 109.77 71.5974 109.782H71.681H159.215C162.955 109.782 165.998 112.824 165.998 116.564V129.064L165.997 129.065Z" fill="#111827"/>
<path d="M149.961 142.633C149.961 146.084 152.768 148.892 156.219 148.892C159.67 148.892 162.477 146.084 162.477 142.633C162.477 139.182 159.67 136.375 156.219 136.375C152.768 136.375 149.961 139.182 149.961 142.633ZM160.204 142.633C160.204 144.834 158.42 146.618 156.219 146.618C154.018 146.618 152.234 144.834 152.234 142.633C152.234 140.433 154.018 138.648 156.219 138.648C158.42 138.648 160.204 140.433 160.204 142.633Z" fill="#111827"/>
<path d="M75.9338 156.17C76.0387 156.085 76.4779 155.808 77.7077 155.808C78.2211 155.808 78.7601 155.907 79.3108 156.102C79.9136 156.315 80.556 156.656 81.2189 157.116L83.1139 158.429L84.4001 156.515L86.4124 153.523L87.6627 151.662L85.8199 150.385C84.9919 149.812 84.1259 149.321 83.2444 148.925C82.6027 148.637 81.9501 148.399 81.2937 148.215V145.025H73.1559V148.413C72.8751 148.512 72.6037 148.622 72.3434 148.741C70.7176 149.489 69.4709 150.633 68.6349 152.141C67.8503 153.557 67.4521 155.285 67.4521 157.275V157.292C67.4521 159.459 67.9309 161.217 68.8755 162.518C69.7973 163.789 70.9508 164.692 72.3031 165.199C73.3671 165.598 74.6776 165.939 76.3085 166.241C76.3613 166.252 76.4134 166.262 76.4662 166.272C76.497 166.279 76.5271 166.285 76.5579 166.291C76.6554 166.315 76.7544 166.333 76.8534 166.346C77.6036 166.485 78.2086 166.643 78.6523 166.817C78.9214 166.922 79.0519 167.046 79.1267 167.135C79.1377 167.163 79.1766 167.278 79.1766 167.535V167.552C79.1766 168.234 78.9823 168.384 78.9097 168.441C78.7491 168.565 78.2313 168.854 76.8769 168.854C76.0599 168.854 75.331 168.695 74.6483 168.369C73.934 168.028 73.2909 167.526 72.6822 166.833L70.8621 164.762L69.1761 166.943L66.9145 169.869L65.7383 171.391L67.0436 172.803C67.8671 173.694 68.8073 174.456 69.8383 175.068C70.8547 175.672 71.9723 176.141 73.1574 176.459V179.635H81.2952V176.35C81.6611 176.238 82.0117 176.111 82.3446 175.968C84.0217 175.25 85.3124 174.142 86.1822 172.676C87.0108 171.277 87.431 169.569 87.431 167.6V167.567C87.431 165.545 87.0064 163.863 86.1689 162.567C85.3395 161.283 84.2711 160.327 82.9936 159.724C81.9376 159.226 80.6939 158.824 79.192 158.495L79.1649 158.489L79.137 158.484C79.1121 158.479 79.0835 158.473 79.0505 158.466L79.0365 158.463L79.0226 158.46L79.0035 158.456C78.9551 158.445 78.9053 158.434 78.8525 158.424L78.7505 158.39L78.6215 158.361C77.6417 158.149 76.8754 157.948 76.3437 157.763C76.0951 157.676 75.9089 157.56 75.7585 157.395C75.7417 157.354 75.7079 157.225 75.7079 156.991V156.974C75.7079 156.35 75.8781 156.212 75.9346 156.167L75.9338 156.17ZM74.0499 158.898C74.4598 159.358 74.9746 159.696 75.5958 159.912C76.2162 160.128 77.0646 160.353 78.1404 160.585C78.1734 160.596 78.2093 160.608 78.2482 160.618C78.2871 160.629 78.3333 160.641 78.3898 160.651C78.4448 160.662 78.4976 160.674 78.5474 160.684C78.5973 160.695 78.6501 160.707 78.7051 160.717C80.0236 161.006 81.1302 161.36 82.0227 161.781C82.9151 162.202 83.6609 162.876 84.2593 163.802C84.8577 164.727 85.1569 165.983 85.1569 167.568V167.601C85.1569 169.164 84.8467 170.469 84.2256 171.517C83.6045 172.565 82.679 173.352 81.4485 173.878C80.7371 174.183 79.9275 174.398 79.0204 174.527V177.362H75.4293V174.668H75.2628C75.2628 174.668 74.7634 174.535 73.7661 174.269C72.7687 174.003 71.8462 173.618 70.9977 173.114C70.1493 172.61 69.3873 171.992 68.7112 171.26L70.9728 168.334C71.7817 169.254 72.6793 169.949 73.6663 170.42C74.6527 170.892 75.7226 171.127 76.8754 171.127C78.3941 171.127 79.5367 170.831 80.3008 170.237C81.0657 169.644 81.4485 168.749 81.4485 167.552V167.535C81.4485 166.77 81.2651 166.164 80.8999 165.714C80.534 165.265 80.0603 164.927 79.478 164.7C78.8965 164.473 78.1565 164.276 77.2582 164.11C77.2252 164.099 77.1944 164.093 77.1673 164.093C77.1401 164.093 77.1093 164.088 77.0756 164.076C77.0199 164.065 76.9641 164.054 76.9091 164.043C76.8541 164.032 76.7984 164.021 76.7434 164.01C75.2467 163.733 74.033 163.42 73.1017 163.071C72.1703 162.722 71.3747 162.093 70.7161 161.184C70.0561 160.274 69.7261 158.978 69.7261 157.293V157.276C69.7261 155.668 70.0253 154.324 70.6245 153.243C71.2229 152.163 72.1124 151.35 73.2931 150.807C73.923 150.518 74.6351 150.306 75.43 150.17V147.298H79.0211V150.073C79.357 150.113 79.6921 150.169 80.0273 150.242C80.798 150.407 81.5592 150.66 82.3131 150.998C83.067 151.336 83.8047 151.754 84.5248 152.253L82.5125 155.246C81.6809 154.669 80.8662 154.24 80.0684 153.957C79.2698 153.674 78.4829 153.533 77.707 153.533C76.2873 153.533 75.221 153.822 74.506 154.398C73.791 154.975 73.4331 155.834 73.4331 156.975V156.992C73.4331 157.801 73.6385 158.436 74.0491 158.896L74.0499 158.898Z" fill="#111827"/>
<path d="M114.306 50.4731C111.219 50.4731 108.707 52.9848 108.707 56.0721C108.707 59.1595 111.219 61.6711 114.306 61.6711C117.393 61.6711 119.905 59.1595 119.905 56.0721C119.905 52.9848 117.393 50.4731 114.306 50.4731ZM114.306 59.3985C112.472 59.3985 110.98 57.9069 110.98 56.0729C110.98 54.2388 112.473 52.7472 114.306 52.7472C116.139 52.7472 117.632 54.2395 117.632 56.0729C117.632 57.9062 116.14 59.3985 114.306 59.3985Z" fill="#111827"/>
<path d="M96.3441 64.0058V55.4383C98.2786 54.7856 100.039 53.6937 101.51 52.2226C102.981 50.7515 104.073 48.9908 104.725 47.0563H123.884C124.536 48.9908 125.628 50.7515 127.099 52.2226C128.57 53.6937 130.33 54.7856 132.265 55.4383V64.0058C132.265 66.3613 134.181 68.2775 136.537 68.2775C138.892 68.2775 140.808 66.3613 140.808 64.0058V47.5953H136.537C133.885 47.5953 131.727 45.4378 131.727 42.7861V38.5137H96.8816V42.7853C96.8816 45.4378 94.7242 47.5953 92.0717 47.5953H87.8008V64.0058C87.8008 66.3613 89.717 68.2775 92.0724 68.2775C94.4279 68.2775 96.3441 66.3613 96.3441 64.0058ZM90.0748 64.0058V49.8686H92.0724C95.984 49.8686 99.1557 46.6977 99.1557 42.7853V40.787H129.455V42.7861C129.455 46.6977 132.626 49.8686 136.537 49.8686H138.536V64.0058C138.536 65.1095 137.641 66.0041 136.537 66.0041C135.434 66.0041 134.539 65.1095 134.539 64.0058V53.6841C132.326 53.2801 130.314 52.2226 128.708 50.6159C127.101 49.0091 126.043 46.9976 125.639 44.7837H102.971C102.567 46.9976 101.51 49.0091 99.903 50.6159C98.2962 52.2226 96.2847 53.2801 94.0715 53.6841V64.0058C94.0715 65.1095 93.1768 66.0041 92.0732 66.0041C90.9695 66.0041 90.0748 65.1095 90.0748 64.0058Z" fill="#111827"/>
<path d="M113.306 82.2211C113.411 82.1361 113.85 81.8596 115.08 81.8596C115.593 81.8596 116.132 81.9586 116.683 82.1529C117.285 82.3663 117.927 82.7073 118.591 83.1671L120.486 84.4805L121.772 82.5665L123.784 79.5738L125.035 77.7133L123.192 76.4366C122.365 75.8631 121.498 75.3718 120.617 74.9758C119.975 74.6883 119.323 74.4507 118.666 74.2667V71.0767H110.529V74.4647C110.248 74.5637 109.976 74.6729 109.716 74.7925C108.09 75.5405 106.844 76.6845 106.008 78.1922C105.223 79.6083 104.825 81.336 104.825 83.3263V83.3431C104.825 85.5101 105.304 87.2687 106.248 88.5696C107.17 89.8405 108.323 90.7432 109.676 91.2499C110.74 91.6489 112.05 91.9899 113.681 92.292C113.733 92.303 113.786 92.3133 113.838 92.3235C113.869 92.3301 113.899 92.336 113.93 92.3419C114.027 92.3661 114.126 92.3844 114.225 92.3969C114.975 92.5362 115.58 92.6946 116.024 92.8684C116.293 92.9733 116.424 93.0972 116.499 93.1867C116.51 93.2145 116.548 93.3289 116.548 93.5863V93.6032C116.548 94.2852 116.354 94.4355 116.282 94.492C116.121 94.6167 115.603 94.9049 114.249 94.9049C113.432 94.9049 112.703 94.7465 112.019 94.4201C111.305 94.0791 110.662 93.5768 110.053 92.8838L108.233 90.8136L106.547 92.9945L104.286 95.9205L103.109 97.4422L104.415 98.8539C105.238 99.7449 106.178 100.507 107.209 101.119C108.226 101.723 109.343 102.192 110.529 102.51V105.686H118.666V102.401C119.032 102.289 119.383 102.162 119.716 102.019C121.393 101.301 122.684 100.194 123.553 98.727C124.382 97.3278 124.802 95.6199 124.802 93.6516V93.6186C124.802 91.5961 124.378 89.9138 123.54 88.618C122.711 87.3347 121.642 86.3784 120.365 85.7756C119.309 85.2769 118.065 84.8751 116.563 84.5465L116.536 84.5407L116.508 84.5355C116.483 84.5304 116.455 84.5245 116.422 84.5172L116.408 84.5143L116.394 84.5113L116.375 84.5069C116.326 84.4967 116.276 84.4857 116.224 84.4754L116.122 84.4409L115.993 84.4123C115.013 84.2004 114.247 83.9995 113.715 83.8139C113.466 83.7274 113.28 83.6108 113.13 83.4465C113.113 83.4055 113.079 83.2764 113.079 83.0425V83.0256C113.079 82.4008 113.249 82.2637 113.306 82.2182V82.2211ZM111.422 84.9491C111.832 85.4089 112.346 85.7477 112.968 85.9633C113.588 86.1789 114.436 86.4041 115.512 86.6365C115.545 86.6475 115.581 86.6593 115.62 86.6695C115.659 86.6805 115.705 86.6923 115.762 86.7025C115.817 86.7135 115.869 86.7253 115.919 86.7355C115.969 86.7465 116.022 86.7583 116.077 86.7685C117.395 87.0575 118.502 87.4117 119.395 87.8326C120.287 88.2535 121.033 88.9275 121.631 89.8529C122.23 90.7784 122.529 92.0339 122.529 93.6193V93.6523C122.529 95.2151 122.219 96.5204 121.597 97.5683C120.976 98.6163 120.051 99.4031 118.82 99.9297C118.109 100.234 117.299 100.45 116.392 100.578V103.413H112.801V100.719H112.635C112.635 100.719 112.135 100.587 111.138 100.321C110.141 100.054 109.218 99.6693 108.37 99.1648C107.521 98.661 106.759 98.0428 106.083 97.3109L108.345 94.3849C109.154 95.3053 110.051 96.0005 111.038 96.4713C112.025 96.9428 113.094 97.1782 114.247 97.1782C115.766 97.1782 116.909 96.8819 117.673 96.2887C118.438 95.6954 118.82 94.8007 118.82 93.6032V93.5863C118.82 92.8215 118.637 92.215 118.272 91.7655C117.906 91.3159 117.432 90.9786 116.85 90.7513C116.268 90.5239 115.528 90.3274 114.63 90.1609C114.597 90.1499 114.566 90.1441 114.539 90.1441C114.512 90.1441 114.481 90.1389 114.447 90.1272C114.392 90.1162 114.336 90.1052 114.281 90.0942C114.226 90.0832 114.17 90.0722 114.115 90.0612C112.619 89.7847 111.405 89.4716 110.474 89.1225C109.542 88.7735 108.747 88.1443 108.088 87.2349C107.428 86.3256 107.098 85.0291 107.098 83.3439V83.327C107.098 81.7195 107.397 80.3753 107.996 79.2944C108.595 78.2142 109.484 77.4017 110.665 76.8583C111.295 76.5693 112.007 76.3574 112.802 76.2217V73.3493H116.393V76.1242C116.729 76.1645 117.064 76.2203 117.399 76.2929C118.17 76.4586 118.931 76.7116 119.685 77.0489C120.439 77.3877 121.177 77.8057 121.897 78.3044L119.884 81.2971C119.053 80.7207 118.238 80.291 117.44 80.0079C116.642 79.7256 115.855 79.5841 115.079 79.5841C113.659 79.5841 112.593 79.8723 111.878 80.4494C111.163 81.0258 110.805 81.8853 110.805 83.0263V83.0432C110.805 83.8521 111.01 84.4871 111.421 84.9469L111.422 84.9491Z" fill="#111827"/>
</g>
<defs>
<clipPath id="clip0_8578_40841">
<rect width="220" height="220" fill="white"/>
</clipPath>
</defs>
</svg>
