<svg width="150" height="150" viewBox="0 0 150 150" fill="none" xmlns="http://www.w3.org/2000/svg">
<g clip-path="url(#clip0_7161_25262)">
<path d="M150 0H0V150H150V0Z" fill="white"/>
<path d="M131.227 8.10742H122.607V16.7269H131.227V8.10742Z" fill="#0158FF"/>
<path d="M17.7406 9.42969L10.9551 21.1827H24.5261L17.7406 9.42969Z" fill="#0158FF"/>
<path d="M137.311 139.156C139.167 137.3 139.167 134.291 137.311 132.436C135.455 130.58 132.446 130.58 130.591 132.436C128.735 134.291 128.735 137.3 130.591 139.156C132.446 141.012 135.455 141.012 137.311 139.156Z" fill="#0158FF"/>
<path d="M9.82389 90.2933L6.93359 93.1836L8.02961 94.2796L10.9199 91.3893L9.82389 90.2933Z" fill="#111827"/>
<path d="M15.1559 84.9632L12.2656 87.8535L13.3616 88.9495L16.2519 86.0592L15.1559 84.9632Z" fill="#111827"/>
<path d="M13.3597 90.2936L12.2637 91.3896L15.154 94.2799L16.25 93.1839L13.3597 90.2936Z" fill="#111827"/>
<path d="M8.02961 84.9626L6.93359 86.0586L9.82389 88.9489L10.9199 87.8529L8.02961 84.9626Z" fill="#111827"/>
<path d="M136.377 67.7513L133.486 70.6416L134.582 71.7376L137.473 68.8473L136.377 67.7513Z" fill="#111827"/>
<path d="M141.709 62.4202L138.818 65.3105L139.914 66.4066L142.805 63.5163L141.709 62.4202Z" fill="#111827"/>
<path d="M139.912 67.7497L138.816 68.8457L141.707 71.736L142.803 70.64L139.912 67.7497Z" fill="#111827"/>
<path d="M134.582 62.4186L133.486 63.5146L136.377 66.4049L137.473 65.3089L134.582 62.4186Z" fill="#111827"/>
<path d="M67.8161 10.1956L64.9258 13.0859L66.0218 14.182L68.9121 11.2917L67.8161 10.1956Z" fill="#111827"/>
<path d="M73.1462 4.86458L70.2559 7.75488L71.3519 8.8509L74.2422 5.9606L73.1462 4.86458Z" fill="#111827"/>
<path d="M71.3538 10.195L70.2578 11.291L73.1481 14.1813L74.2441 13.0853L71.3538 10.195Z" fill="#111827"/>
<path d="M66.0218 4.86395L64.9258 5.95996L67.8161 8.85026L68.9121 7.75424L66.0218 4.86395Z" fill="#111827"/>
<path d="M39.2844 134.299H37.7344V144.409H39.2844V134.299Z" fill="#111827"/>
<path d="M43.5651 138.578H33.4551V140.128H43.5651V138.578Z" fill="#111827"/>
<path d="M134.277 14.5015H125.658C125.23 14.5015 124.883 14.1545 124.883 13.7265V5.10703C124.883 4.67903 125.23 4.33203 125.658 4.33203H134.277C134.705 4.33203 135.052 4.67903 135.052 5.10703V13.7265C135.052 14.1545 134.705 14.5015 134.277 14.5015ZM126.433 12.9515H133.502V5.88203H126.433V12.9515Z" fill="#111827"/>
<path d="M27.5768 18.9578H14.0053C13.7283 18.9578 13.4728 18.8103 13.3343 18.5703C13.1958 18.3303 13.1958 18.0353 13.3343 17.7953L20.1198 6.0418C20.2583 5.8018 20.5143 5.6543 20.7908 5.6543C21.0673 5.6543 21.3233 5.8018 21.4618 6.0418L28.2473 17.7953C28.3858 18.0353 28.3858 18.3303 28.2473 18.5703C28.1088 18.8103 27.8528 18.9578 27.5763 18.9578H27.5768ZM15.3478 17.4078H26.2348L20.7913 7.9793L15.3478 17.4078Z" fill="#111827"/>
<path d="M137.002 138.323C133.954 138.323 131.475 135.843 131.475 132.796C131.475 129.748 133.954 127.269 137.002 127.269C140.049 127.269 142.529 129.748 142.529 132.796C142.529 135.843 140.049 138.323 137.002 138.323ZM137.002 128.819C134.809 128.819 133.025 130.603 133.025 132.796C133.025 134.989 134.809 136.773 137.002 136.773C139.195 136.773 140.979 134.989 140.979 132.796C140.979 130.603 139.195 128.819 137.002 128.819Z" fill="#111827"/>
<path d="M79.6602 89.2495C77.4202 90.1115 75.1417 90.5465 72.8477 90.5465C70.5537 90.5465 68.2747 90.1115 66.0352 89.2495V92.349H79.6607V89.249L79.6602 89.2495Z" fill="#EAB308"/>
<path d="M65.2586 93.8994H64.4836H63.5566V100.462H82.1366V93.8994H81.2091H80.4341H79.6591H66.0336H65.2586Z" fill="#EAB308"/>
<path d="M91.4797 102.013H54.2137C52.0442 102.013 50.2852 103.772 50.2852 105.941V119.219C50.2852 121.388 52.0442 123.147 54.2137 123.147H91.4797C93.6492 123.147 95.4082 121.388 95.4082 119.219V105.941C95.4082 103.772 93.6492 102.013 91.4797 102.013Z" fill="#EAB308"/>
<path d="M105.072 35.2891V39.6921C105.072 39.9666 105.07 40.2511 105.066 40.5376C105.063 40.7391 105.059 40.9406 105.054 41.1421H113.637L113.038 45.0571C111.637 54.2111 106.594 62.3026 99.0989 67.5276C98.6479 68.5486 98.1754 69.5481 97.6834 70.5216V70.5241L97.5124 70.8571C96.4249 72.9761 95.2399 74.9766 93.9824 76.8196C96.0784 76.0616 98.3059 74.9576 100.628 73.5236C103.057 72.0231 105.326 70.2506 107.372 68.2556C109.391 66.2871 111.203 64.0916 112.758 61.7311C114.309 59.3751 115.611 56.8441 116.627 54.2081C117.652 51.5476 118.392 48.7671 118.824 45.9426L120.455 35.2891H105.073H105.072Z" fill="#EAB308"/>
<path d="M48.1822 70.8571C47.6287 69.7786 47.0987 68.6661 46.5957 67.5276C39.1007 62.3031 34.0577 54.2111 32.6567 45.0571L32.0572 41.1421H40.6402C40.6357 40.9401 40.6312 40.7386 40.6287 40.5371C40.6247 40.2506 40.6227 39.9661 40.6227 39.6921V35.2891H25.2402L26.8712 45.9426C27.3037 48.7671 28.0427 51.5481 29.0687 54.2081C30.0847 56.8441 31.3867 59.3756 32.9377 61.7311C34.4922 64.0916 36.3042 66.2866 38.3232 68.2556C40.3692 70.2506 42.6382 72.0231 45.0672 73.5231C47.3892 74.9571 49.6162 76.0611 51.7127 76.8191C50.4552 74.9766 49.2702 72.9756 48.1827 70.8566L48.1822 70.8571Z" fill="#EAB308"/>
<path d="M42.1738 30.9033V39.6923C42.1738 39.9663 42.1758 40.2413 42.1793 40.5163C42.1823 40.7248 42.1868 40.9333 42.1918 41.1423C42.1983 41.4003 42.2058 41.6588 42.2153 41.9173C42.2248 42.1753 42.2363 42.4338 42.2493 42.6923C42.6523 50.8383 44.6633 59.1808 47.8388 66.5003C48.0288 66.9383 48.2228 67.3723 48.4213 67.8028C48.6178 68.2293 48.8183 68.6523 49.0228 69.0708C49.1998 69.4333 49.3793 69.7933 49.5623 70.1493C50.7808 72.5243 52.1278 74.7548 53.5843 76.7918C53.7723 77.0543 53.9618 77.3138 54.1533 77.5698C54.4118 77.9158 54.6738 78.2553 54.9383 78.5893C55.2188 78.9423 55.5028 79.2883 55.7898 79.6268C58.9003 83.2918 62.4138 86.0933 66.1888 87.6413C66.9428 87.9508 67.7073 88.2103 68.4813 88.4163C69.9078 88.7963 71.3653 88.9963 72.8478 88.9963C74.3303 88.9963 75.7883 88.7963 77.2143 88.4163C77.9883 88.2103 78.7528 87.9508 79.5068 87.6413C83.2818 86.0928 86.7948 83.2918 89.9058 79.6268C90.1933 79.2883 90.4773 78.9423 90.7578 78.5893C91.0228 78.2558 91.2848 77.9158 91.5433 77.5698C91.7348 77.3138 91.9243 77.0548 92.1123 76.7923C93.5688 74.7548 94.9158 72.5243 96.1343 70.1498C96.3173 69.7933 96.4968 69.4333 96.6738 69.0708C96.8783 68.6523 97.0788 68.2293 97.2753 67.8028C97.4733 67.3723 97.6678 66.9383 97.8578 66.5003C101.033 59.1808 103.044 50.8383 103.447 42.6923C103.46 42.4338 103.472 42.1753 103.481 41.9173C103.491 41.6588 103.498 41.4003 103.505 41.1423C103.51 40.9333 103.514 40.7248 103.517 40.5163C103.521 40.2413 103.523 39.9663 103.523 39.6923V30.9033H42.1738ZM81.2753 59.6898L83.1983 70.8823L73.1503 65.5903L63.0998 70.8778L65.0273 59.6863L56.8928 51.7618L68.1323 50.1368L73.1553 39.9518L78.1738 50.1388L89.4128 51.7688L81.2748 59.6898H81.2753Z" fill="#EAB308"/>
<path d="M122.955 31.2395H107.573V26.8535H43.1235V31.2395H25.9355L26.2085 33.024L27.8395 43.6775C28.289 46.612 29.057 49.502 30.123 52.266C31.179 55.005 32.5315 57.6355 34.144 60.084C35.76 62.5375 37.643 64.8195 39.7415 66.8655C41.8685 68.9395 44.2275 70.7825 46.7535 72.3425C49.8805 74.274 52.8595 75.636 55.608 76.3905L55.7345 76.425C58.319 79.803 61.1295 82.4995 64.104 84.452C65.055 85.076 66.016 85.619 66.9855 86.0815V89.849H64.508V97.962H56.715C55.2515 97.962 53.876 98.532 52.841 99.5665C51.8065 100.601 51.2365 101.977 51.2365 103.441V116.718C51.2365 118.182 51.8065 119.557 52.841 120.592C53.8755 121.627 55.2515 122.197 56.715 122.197H93.981C95.4445 122.197 96.82 121.627 97.855 120.592C98.8895 119.558 99.4595 118.182 99.4595 116.718V103.441C99.4595 101.977 98.8895 100.602 97.855 99.5665C96.8205 98.532 95.4445 97.962 93.981 97.962H86.188V89.849H83.7105V86.0815C84.68 85.619 85.641 85.076 86.592 84.452C89.5665 82.4995 92.3765 79.803 94.9615 76.425L95.088 76.3905C97.8365 75.6355 100.816 74.2735 103.943 72.3425C106.468 70.7825 108.828 68.94 110.955 66.866C113.053 64.8195 114.937 62.538 116.552 60.0845C118.165 57.636 119.517 55.006 120.573 52.2665C121.639 49.5025 122.407 46.613 122.857 43.678L124.488 33.0245L124.761 31.24H122.955V31.2395ZM109.873 65.756C107.827 67.751 105.558 69.5235 103.128 71.024C100.806 72.458 98.579 73.562 96.4825 74.32C97.74 72.4775 98.9255 70.4765 100.013 68.3575L100.184 68.0245V68.022C100.676 67.049 101.148 66.049 101.599 65.028C109.094 59.8035 114.137 51.7115 115.538 42.5575L116.138 38.6425H107.555C107.559 38.441 107.564 38.239 107.566 38.038C107.57 37.751 107.572 37.467 107.572 37.1925V32.7895H122.955L121.324 43.443C120.891 46.2675 120.152 49.0485 119.126 51.7085C118.11 54.3445 116.808 56.8755 115.257 59.2315C113.703 61.592 111.891 63.7875 109.872 65.756H109.873ZM92.406 77.1275C89.295 80.7925 85.782 83.594 82.007 85.142C81.253 85.4515 80.4885 85.711 79.7145 85.917C78.288 86.297 76.8305 86.497 75.348 86.497C73.8655 86.497 72.4075 86.297 70.9815 85.917C70.2075 85.711 69.443 85.4515 68.689 85.142C64.914 83.5935 61.401 80.7925 58.29 77.1275C58.0025 76.789 57.7185 76.443 57.4385 76.09C57.1735 75.7565 56.912 75.4165 56.6535 75.0705C56.462 74.8145 56.272 74.5555 56.0845 74.2925C54.628 72.255 53.281 70.0245 52.0625 67.65C51.8795 67.294 51.7 66.934 51.523 66.5715C51.3185 66.153 51.118 65.73 50.9215 65.3035C50.7235 64.873 50.529 64.439 50.339 64.001C47.1635 56.6815 45.1525 48.339 44.7495 40.193C44.7365 39.9345 44.725 39.676 44.7155 39.418C44.706 39.1595 44.6985 38.901 44.692 38.643C44.687 38.434 44.6825 38.2255 44.6795 38.017C44.676 37.742 44.674 37.467 44.674 37.193V28.404H106.023V37.193C106.023 37.467 106.021 37.742 106.017 38.017C106.014 38.2255 106.01 38.434 106.005 38.643C105.998 38.901 105.991 39.1595 105.981 39.418C105.972 39.676 105.96 39.9345 105.947 40.193C105.544 48.339 103.533 56.6815 100.358 64.001C100.168 64.439 99.9735 64.873 99.775 65.3035C99.5785 65.73 99.378 66.153 99.1735 66.5715C98.9965 66.934 98.817 67.294 98.634 67.65C97.4155 70.025 96.0685 72.2555 94.612 74.2925C94.4245 74.5555 94.2345 74.8145 94.043 75.0705C93.7845 75.4165 93.5225 75.7565 93.2575 76.09C92.977 76.443 92.693 76.789 92.4055 77.1275H92.406ZM97.909 116.719C97.909 118.888 96.15 120.647 93.9805 120.647H56.7145C54.545 120.647 52.786 118.888 52.786 116.719V103.441C52.786 101.272 54.545 99.5125 56.7145 99.5125H93.9805C96.15 99.5125 97.909 101.272 97.909 103.441V116.719ZM84.638 97.9625H66.058V91.3995H84.638V97.9625ZM82.1605 89.8495H68.535V86.75C70.775 87.612 73.0535 88.047 75.3475 88.047C77.6415 88.047 79.9205 87.612 82.16 86.75V89.85L82.1605 89.8495ZM47.5675 71.024C45.138 69.5235 42.869 67.751 40.8235 65.7565C38.8045 63.7875 36.993 61.5925 35.438 59.232C33.8865 56.876 32.585 54.345 31.569 51.709C30.5435 49.049 29.804 46.268 29.3715 43.4435L27.7405 32.79H43.123V37.193C43.123 37.467 43.125 37.7515 43.129 38.038C43.132 38.2395 43.136 38.441 43.1405 38.643H34.5575L35.157 42.558C36.558 51.712 41.601 59.8035 49.096 65.0285C49.599 66.167 50.129 67.2795 50.6825 68.358C51.77 70.477 52.955 72.478 54.2125 74.3205C52.1165 73.5625 49.889 72.4585 47.567 71.0245L47.5675 71.024ZM43.1965 40.1925C43.4105 44.659 44.095 49.2135 45.2385 53.762C45.8835 56.3265 46.6725 58.8665 47.584 61.3105C47.6935 61.6045 47.805 61.897 47.9185 62.1885C41.9125 57.227 37.8935 50.186 36.69 42.3235L36.364 40.193H43.197L43.1965 40.1925ZM107.499 40.1925H114.332L114.006 42.323C112.803 50.186 108.784 57.2265 102.778 62.188C102.891 61.8965 103.002 61.604 103.112 61.31C104.023 58.866 104.812 56.326 105.457 53.7615C106.601 49.213 107.286 44.6585 107.499 40.192V40.1925Z" fill="#111827"/>
<path d="M92.1353 47.7353L81.7038 46.2228L77.0458 36.7673C76.7848 36.2378 76.2458 35.9023 75.6558 35.9023C75.0658 35.9023 74.5268 36.2373 74.2658 36.7668L69.6038 46.2203L59.1718 47.7288C58.5878 47.8133 58.1023 48.2223 57.9198 48.7833C57.7373 49.3448 57.8893 49.9608 58.3123 50.3728L65.8623 57.7278L64.0733 68.1153C63.9733 68.6968 64.2118 69.2853 64.6893 69.6323C64.9593 69.8288 65.2793 69.9283 65.6008 69.9283C65.8478 69.9283 66.0953 69.8693 66.3223 69.7498L75.6508 64.8423L84.9768 69.7538C85.2038 69.8733 85.4518 69.9323 85.6988 69.9323C86.0203 69.9323 86.3398 69.8323 86.6098 69.6363C87.0873 69.2893 87.3268 68.7013 87.2268 68.1198L85.4418 57.7313L92.9948 50.3793C93.4178 49.9678 93.5703 49.3513 93.3878 48.7898C93.2053 48.2283 92.7203 47.8193 92.1358 47.7343L92.1353 47.7353ZM67.5273 57.1868L59.3928 49.2623L70.6323 47.6373L75.6553 37.4523L80.6738 47.6393L91.9128 49.2693L83.7748 57.1903L85.6978 68.3828L75.6498 63.0908L65.5993 68.3783L67.5268 57.1868H67.5273Z" fill="#111827"/>
</g>
<defs>
<clipPath id="clip0_7161_25262">
<rect width="150" height="150" fill="white"/>
</clipPath>
</defs>
</svg>
