<svg width="24" height="24" viewBox="0 0 24 24" fill="none" xmlns="http://www.w3.org/2000/svg">
<path d="M2.93325 1.00093H9.466C9.466 1.00093 10.3993 1.00093 10.3993 1.93423V8.46727C10.3993 8.46727 10.3993 9.40056 9.466 9.40056H2.93325C2.93325 9.40056 2 9.40056 2 8.46727V1.93423C2 1.93423 2 1.00093 2.93325 1.00093ZM14.5989 5.20075C14.5989 6.31485 15.0414 7.38333 15.8292 8.17112C16.617 8.95892 17.6854 9.40149 18.7994 9.40149C19.9135 9.40149 20.9819 8.95892 21.7697 8.17112C22.5574 7.38333 23 6.31485 23 5.20075C23 4.08664 22.5574 3.01816 21.7697 2.23037C20.9819 1.44258 19.9135 1 18.7994 1C17.6854 1 16.617 1.44258 15.8292 2.23037C15.0414 3.01816 14.5989 4.08664 14.5989 5.20075ZM18.8321 13.3456C18.7623 13.2114 18.657 13.0989 18.5276 13.0203C18.3983 12.9418 18.2499 12.9003 18.0986 12.9003C17.9473 12.9003 17.7989 12.9418 17.6695 13.0203C17.5402 13.0989 17.4349 13.2114 17.365 13.3456L13.3175 20.6318C13.2412 20.7712 13.2007 20.9274 13.1995 21.0864C13.1984 21.2454 13.2367 21.4022 13.311 21.5427C13.3809 21.6792 13.4868 21.794 13.6172 21.8746C13.7477 21.9552 13.8977 21.9986 14.0511 22H22.1461C22.2992 21.9976 22.4488 21.9538 22.5791 21.8733C22.7094 21.7928 22.8155 21.6786 22.8861 21.5427C22.9605 21.4022 22.9988 21.2454 22.9976 21.0864C22.9965 20.9274 22.9559 20.7712 22.8796 20.6318L18.8321 13.3456ZM6.76051 12.4655C6.69239 12.383 6.60687 12.3165 6.51006 12.2709C6.41326 12.2253 6.30757 12.2016 6.20056 12.2016C6.09355 12.2016 5.98786 12.2253 5.89106 12.2709C5.79425 12.3165 5.70873 12.383 5.64061 12.4655L2.17825 16.6065C2.06338 16.7454 2.00054 16.92 2.00054 17.1002C2.00054 17.2805 2.06338 17.455 2.17825 17.5939L5.63874 21.7349C5.70705 21.8172 5.79264 21.8834 5.88942 21.9288C5.98619 21.9742 6.09179 21.9978 6.19869 21.9978C6.3056 21.9978 6.41119 21.9742 6.50797 21.9288C6.60475 21.8834 6.69033 21.8172 6.75864 21.7349L10.2191 17.5939C10.334 17.455 10.3968 17.2805 10.3968 17.1002C10.3968 16.92 10.334 16.7454 10.2191 16.6065L6.76051 12.4655Z" stroke="#374151" stroke-width="2" stroke-linecap="round" stroke-linejoin="round"/>
</svg>
