<svg width="196" height="123" viewBox="0 0 196 123" fill="none" xmlns="http://www.w3.org/2000/svg">
<g clip-path="url(#clip0_8235_23224)">
<path d="M10.5562 115.593L3.57145 103.994H0V122.679H4.02348V111.658L9.5139 120.677H11.4329L16.9283 111.534L16.9756 122.679H20.9991V103.994H17.4015L10.5562 115.593Z" fill="#141414"/>
<path d="M39.8671 103.994H23.6113V107.518H29.5812V122.679H33.8973V107.518H39.8671V103.994Z" fill="#141414"/>
<path d="M57.9346 103.994H53.271L49.0471 110.021L44.7708 103.994H39.8931L46.4133 113.165L39.5469 122.679H44.4769L48.9076 116.186L53.4043 122.679H58.3879L51.4293 113.017L57.9346 103.994Z" fill="#141414"/>
<path d="M66.6465 107.518H72.6163V122.679H76.9337V107.518H82.9023V103.994H66.6465V107.518Z" fill="#141414"/>
<path d="M97.88 116.66C99.0879 116.134 100.021 115.37 100.678 114.365C101.336 113.359 101.664 112.154 101.664 110.747C101.664 108.648 100.945 106.996 99.5063 105.795C98.0668 104.594 96.0507 103.994 93.4568 103.994H85.4883V122.679H89.8318V117.448H93.5626C93.6262 117.448 93.6884 117.445 93.7519 117.444L97.3732 122.679H102.011L97.8539 116.671C97.8626 116.667 97.8713 116.665 97.88 116.661V116.66ZM96.3085 108.359C96.9834 108.919 97.3209 109.716 97.3209 110.747C97.3209 111.779 96.9834 112.581 96.3085 113.15C95.6335 113.72 94.6386 114.004 93.3235 114.004H89.833V107.518H93.3235C94.6386 107.518 95.6323 107.799 96.3085 108.359Z" fill="#141414"/>
<path d="M111.176 103.994L102.889 122.679H107.312L108.974 118.675H117.615L119.278 122.679H123.808L115.44 103.994H111.176ZM110.338 115.392L113.295 108.269L116.253 115.392H110.338Z" fill="#141414"/>
<path d="M139.852 105.155C138.306 104.381 136.52 103.994 134.496 103.994H126.021V122.679H134.496C136.52 122.679 138.306 122.293 139.852 121.518C141.397 120.743 142.605 119.658 143.475 118.261C144.346 116.864 144.782 115.223 144.782 113.337C144.782 111.451 144.346 109.809 143.475 108.412C142.605 107.015 141.397 105.93 139.852 105.155ZM139.651 116.419C139.144 117.3 138.434 117.977 137.519 118.447C136.604 118.919 135.524 119.154 134.281 119.154H130.364V107.517H134.281C135.525 107.517 136.604 107.752 137.519 108.224C138.434 108.695 139.144 109.368 139.651 110.24C140.158 111.111 140.411 112.144 140.411 113.335C140.411 114.527 140.158 115.537 139.651 116.419Z" fill="#141414"/>
<path d="M152.642 103.994H148.299V122.679H152.642V103.994Z" fill="#141414"/>
<path d="M170.15 115.33L160.876 103.994H157.305V122.679H161.569V111.343L170.842 122.679H174.414V103.994H170.15V115.33Z" fill="#141414"/>
<path d="M191.709 118.533C191.423 118.684 191.135 118.812 190.844 118.915C190.036 119.199 189.205 119.341 188.352 119.341C187.499 119.341 186.651 119.19 185.914 118.887C185.177 118.585 184.537 118.166 183.995 117.633C183.453 117.099 183.036 116.463 182.742 115.724C182.449 114.986 182.303 114.19 182.303 113.335C182.303 112.481 182.449 111.637 182.742 110.907C183.035 110.177 183.452 109.546 183.995 109.012C184.537 108.478 185.18 108.064 185.926 107.771C186.672 107.478 187.489 107.331 188.378 107.331C189.337 107.331 190.218 107.504 191.017 107.851C191.816 108.198 192.562 108.737 193.256 109.466L196.001 106.904C195.094 105.854 193.979 105.053 192.656 104.502C191.332 103.95 189.844 103.675 188.193 103.675C186.701 103.675 185.332 103.911 184.088 104.382C182.844 104.854 181.761 105.526 180.837 106.398C179.913 107.27 179.198 108.292 178.691 109.467C178.184 110.642 177.932 111.932 177.932 113.338C177.932 114.744 178.184 116.033 178.691 117.208C179.198 118.383 179.904 119.406 180.809 120.278C181.716 121.15 182.791 121.822 184.033 122.294C185.278 122.765 186.636 123.001 188.111 123.001C189.443 123.001 190.775 122.801 192.108 122.401C193.44 122.001 194.622 121.409 195.652 120.626V113.045H191.708V118.536L191.709 118.533Z" fill="#141414"/>
<path d="M94.4957 25.8398L80.9384 36.3049L70.3648 28.1486L68.137 33.7242L60.9418 51.7383L58.1736 53.875C52.7305 58.0735 44.7794 55.7185 42.498 49.2286L50.0457 32.5317L56.4538 18.3582C60.0016 10.5087 69.848 7.89932 76.8078 12.9635L94.497 25.841L94.4957 25.8398Z" fill="url(#paint0_linear_8235_23224)"/>
<path d="M154.67 54.2093C154.533 55.7522 154.215 57.249 153.743 58.6835C151.66 59.5354 149.382 60.0056 146.997 60.0056C142.276 60.0056 137.984 58.1695 134.791 55.1697L138.141 57.6107L131.65 32.9783L130.361 28.0825L129.248 23.8553L133.486 20.7232C135.817 18.9994 138.574 18.1362 141.333 18.1362C144.093 18.1362 146.664 18.942 148.95 20.5536V20.5423L149.571 23.7542L149.705 24.4453L154.378 48.5675C154.748 50.4835 154.836 52.3757 154.67 54.2093Z" fill="url(#paint1_linear_8235_23224)"/>
<path d="M153.743 58.6834C151.134 66.5728 143.718 72.4665 134.702 72.4665C132.475 72.4665 130.279 72.0998 128.197 71.3876C126.119 70.6791 124.154 69.6326 122.39 68.2705L96.3379 48.1771L110.651 37.5972L128.523 50.6057L134.791 55.1684C137.984 58.1683 142.275 60.0043 146.997 60.0043C149.382 60.0043 151.66 59.5341 153.743 58.6822V58.6834Z" fill="url(#paint2_linear_8235_23224)"/>
<path d="M148.949 20.5424V20.5536C146.664 18.9421 143.999 18.1363 141.333 18.1363C138.667 18.1363 135.815 18.9995 133.485 20.7233L129.248 23.8553L110.651 37.5985L96.3377 48.1784L82.3395 58.5226C77.615 62.0151 72.5442 64.9701 67.2306 67.35C67.2244 67.35 67.2219 67.3525 67.2194 67.3563C66.0426 67.8839 64.8521 68.3828 63.6517 68.8531C63.6455 68.8531 63.643 68.8556 63.638 68.8593C61.846 69.4044 59.942 69.7 57.972 69.7C55.8276 69.7 53.7655 69.3532 51.839 68.7071C50.3385 68.2057 48.9189 67.5284 47.6076 66.6939C41.7872 63.003 39.659 55.5153 42.4995 49.2287C44 53.4996 47.9563 55.9793 52.0395 55.9793C54.1615 55.9793 56.3145 55.3107 58.175 53.8738L60.9432 51.7371L74.9725 40.9077L80.9398 36.305L94.4971 25.8399L123.81 3.21813L126.186 1.65522C128.325 0.531366 130.618 0 132.877 0C139.49 0 145.844 4.52534 147.264 11.8535L148.948 20.5437L148.949 20.5424Z" fill="url(#paint3_linear_8235_23224)"/>
</g>
<defs>
<linearGradient id="paint0_linear_8235_23224" x1="48.3247" y1="41.3804" x2="81.785" y2="17.636" gradientUnits="userSpaceOnUse">
<stop stop-color="#8ECCF8"/>
<stop offset="1" stop-color="#015FD1"/>
</linearGradient>
<linearGradient id="paint1_linear_8235_23224" x1="137.354" y1="20.8242" x2="147.238" y2="57.9731" gradientUnits="userSpaceOnUse">
<stop stop-color="#1D3198"/>
<stop offset="1" stop-color="#236CD6"/>
</linearGradient>
<linearGradient id="paint2_linear_8235_23224" x1="96.3379" y1="55.0325" x2="153.743" y2="55.0325" gradientUnits="userSpaceOnUse">
<stop stop-color="#0161D4"/>
<stop offset="0.6" stop-color="#225FE0"/>
<stop offset="1" stop-color="#2148CD"/>
</linearGradient>
<linearGradient id="paint3_linear_8235_23224" x1="47.4009" y1="68.3067" x2="145.819" y2="0.475421" gradientUnits="userSpaceOnUse">
<stop stop-color="#BBECFA"/>
<stop offset="0.69" stop-color="#0084FE"/>
<stop offset="1" stop-color="#7FC4F8"/>
</linearGradient>
<clipPath id="clip0_8235_23224">
<rect width="196" height="123" fill="white"/>
</clipPath>
</defs>
</svg>
