<svg width="115" height="75" viewBox="0 0 115 75" fill="none" xmlns="http://www.w3.org/2000/svg">
<path d="M0 4C0 1.79086 1.79086 0 4 0H55V75H4C1.79086 75 0 73.2091 0 71V4Z" fill="#F04438"/>
<path d="M115 71C115 73.2091 113.209 75 111 75H60L60 0H111C113.209 0 115 1.79086 115 4L115 71Z" fill="#12B76A"/>
<path d="M24 19.3137C24 16.9313 25.9313 15 28.3137 15H86.6863C89.0687 15 91 16.9313 91 19.3137V56.6863C91 59.0687 89.0687 61 86.6863 61H28.3137C25.9313 61 24 59.0687 24 56.6863V19.3137Z" fill="white"/>
<rect x="31" y="23" width="53" height="30" rx="15" fill="#9CA3AF"/>
</svg>
