<svg width="200" height="172" viewBox="0 0 200 172" fill="none" xmlns="http://www.w3.org/2000/svg">
<path d="M55.6035 0H142.025V83.7415C142.025 98.5412 130.027 110.539 115.227 110.539H82.4008C67.6011 110.539 55.6035 98.5412 55.6035 83.7415V0Z" fill="#F3F4F6"/>
<rect x="11.0547" width="33.4966" height="156.764" fill="#F3F4F6"/>
<rect x="153.08" width="33.4966" height="137.336" fill="#F3F4F6"/>
<circle cx="169.828" cy="135.661" r="16.7483" fill="#0158FF"/>
<path d="M169.828 118.913C169.828 128.018 177.095 135.427 186.145 135.656L186.577 135.661C177.327 135.661 169.828 143.16 169.828 152.41C169.828 143.16 162.33 135.661 153.08 135.661C162.33 135.661 169.828 128.163 169.828 118.913Z" fill="#EAB308"/>
<path d="M64.8154 134.321C64.8154 139.25 68.6864 143.274 73.5537 143.521L74.0273 143.533C68.94 143.533 64.8156 147.657 64.8154 152.744C64.8153 147.657 60.6917 143.533 55.6045 143.533H55.6035V143.532C60.6909 143.532 64.8154 139.409 64.8154 134.321Z" fill="#EAB308"/>
<path d="M186.576 26.7974C186.576 34.1971 192.575 40.1957 199.975 40.1958C192.575 40.1959 186.576 46.1946 186.576 53.5942C186.576 46.1948 180.577 40.1961 173.178 40.1958C180.462 40.1955 186.388 34.3829 186.571 27.1431L186.576 26.7974Z" fill="#2563EB"/>
<path d="M186.601 26.8315C186.619 34.2155 192.611 40.1956 199.999 40.1958L200 40.1948V40.1958H199.999C192.611 40.196 186.62 46.1757 186.601 53.5591V27.6099H186.576C186.585 27.4549 186.593 27.2994 186.597 27.1431L186.601 26.8315Z" fill="#EAB308"/>
<path d="M11.0537 82.4014C11.0537 88.5061 16.0027 93.4549 22.1074 93.4551C16.0028 93.4552 11.0539 98.4042 11.0537 104.509C11.0535 98.4041 6.10478 93.4551 0 93.4551C6.10488 93.4551 11.0537 88.5062 11.0537 82.4014Z" fill="#2563EB"/>
<path d="M11.0752 82.4014C11.0752 88.5062 16.0241 93.455 22.1289 93.4551C16.2148 93.4552 11.3858 98.0999 11.0898 103.94L11.0752 104.509V83.0713H11.0527C11.066 82.8496 11.0752 82.6264 11.0752 82.4014Z" fill="#EAB308"/>
<circle cx="98.8141" cy="91.1105" r="43.2106" fill="#0158FF"/>
<g clip-path="url(#clip0_8150_29784)">
<mask id="mask0_8150_29784" style="mask-type:luminance" maskUnits="userSpaceOnUse" x="73" y="65" width="51" height="52">
<path d="M73.6914 65.9885H123.936V116.233H73.6914V65.9885Z" fill="white"/>
</mask>
<g mask="url(#mask0_8150_29784)">
<path d="M75.1641 94.0552H101.759V67.4607C87.149 67.4607 75.1641 79.4457 75.1641 94.0552Z" stroke="white" stroke-width="2.23311" stroke-miterlimit="10" stroke-linecap="square"/>
<path d="M101.758 111.719C92.0023 111.719 84.0938 103.811 84.0938 94.055" stroke="white" stroke-width="2.23311" stroke-miterlimit="10" stroke-linecap="square"/>
<path d="M101.758 94.0548V114.761C113.121 114.761 122.464 105.418 122.464 94.0548C122.464 82.6913 113.121 73.4466 101.758 73.4466" stroke="white" stroke-width="2.23311" stroke-miterlimit="10" stroke-linecap="square"/>
<path d="M87.0371 88.167L92.9252 82.2789" stroke="white" stroke-width="2.23311" stroke-miterlimit="10" stroke-linecap="square"/>
<path d="M92.9258 89.6392V86.6951" stroke="white" stroke-width="2.23311" stroke-miterlimit="10"/>
<path d="M87.0371 83.751V80.8069" stroke="white" stroke-width="2.23311" stroke-miterlimit="10"/>
<path d="M107.646 96.9993C107.646 98.6253 108.965 99.9434 110.591 99.9434C112.216 99.9434 113.535 98.6253 113.535 96.9993C113.535 95.3733 112.216 94.0553 110.591 94.0553C108.965 94.0553 107.646 92.7372 107.646 91.1113C107.646 89.4853 108.965 88.1672 110.591 88.1672C112.216 88.1672 113.535 89.4853 113.535 91.1113" stroke="white" stroke-width="2.23311" stroke-miterlimit="10"/>
<path d="M110.59 83.7509V88.167" stroke="white" stroke-width="2.23311" stroke-miterlimit="10"/>
<path d="M110.59 99.9433V104.359" stroke="white" stroke-width="2.23311" stroke-miterlimit="10"/>
</g>
</g>
<circle cx="98.814" cy="91.1104" r="38.0186" stroke="white" stroke-width="1.0049"/>
<circle cx="27.803" cy="155.089" r="16.7483" fill="#0158FF"/>
<path d="M33.4566 163.254H22.1515C21.8048 163.254 21.5234 162.972 21.5234 162.626C21.5234 162.279 21.8048 161.998 22.1515 161.998H33.4566C33.8033 161.998 34.0847 162.279 34.0847 162.626C34.0847 162.972 33.8033 163.254 33.4566 163.254Z" fill="white"/>
<path d="M32.2002 160.113C31.8535 160.113 31.5725 159.833 31.5722 159.486C31.5696 157.766 29.8299 156.774 28.1991 155.98C27.9825 155.874 27.7523 155.767 27.5142 155.656C25.5176 154.726 22.7834 153.452 22.7793 150.693C22.779 150.347 23.0597 150.065 23.4064 150.064H23.4074C23.7537 150.064 24.0351 150.345 24.0354 150.692C24.0382 152.65 26.1671 153.642 28.045 154.518C28.2896 154.632 28.5264 154.742 28.7493 154.851C30.1738 155.545 32.8248 156.836 32.8286 159.485C32.8289 159.831 32.5482 160.113 32.2015 160.114C32.2008 160.113 32.2005 160.113 32.2002 160.113Z" fill="white"/>
<path d="M23.4074 160.113C23.407 160.113 23.4067 160.113 23.4064 160.113C23.0597 160.113 22.7787 159.831 22.7793 159.484C22.7834 156.726 25.5176 155.452 27.5142 154.521C27.7523 154.411 27.9825 154.304 28.1992 154.198C29.8299 153.404 31.5696 152.412 31.5722 150.692C31.5725 150.345 31.8538 150.064 32.2002 150.064H32.2012C32.5478 150.065 32.8289 150.346 32.8283 150.693C32.8245 153.343 30.1735 154.634 28.749 155.327C28.5261 155.436 28.2896 155.546 28.0446 155.66C26.1671 156.535 24.0382 157.527 24.0354 159.486C24.0351 159.833 23.7537 160.113 23.4074 160.113Z" fill="white"/>
<path d="M32.1984 163.254C31.8517 163.254 31.5703 162.972 31.5703 162.626V159.485C31.5703 159.139 31.8517 158.857 32.1984 158.857C32.5451 158.857 32.8264 159.139 32.8264 159.485V162.626C32.8264 162.972 32.5451 163.254 32.1984 163.254Z" fill="white"/>
<path d="M23.4074 163.254C23.0607 163.254 22.7793 162.972 22.7793 162.626V159.485C22.7793 159.139 23.0607 158.857 23.4074 158.857C23.754 158.857 24.0354 159.139 24.0354 159.485V162.626C24.0354 162.972 23.754 163.254 23.4074 163.254Z" fill="white"/>
<path d="M32.1984 151.321C31.8517 151.321 31.5703 151.039 31.5703 150.693V147.552C31.5703 147.206 31.8517 146.924 32.1984 146.924C32.5451 146.924 32.8264 147.206 32.8264 147.552V150.693C32.8264 151.039 32.5451 151.321 32.1984 151.321Z" fill="white"/>
<path d="M23.4074 151.321C23.0607 151.321 22.7793 151.039 22.7793 150.693V147.552C22.7793 147.206 23.0607 146.924 23.4074 146.924C23.754 146.924 24.0354 147.206 24.0354 147.552V150.693C24.0354 151.039 23.754 151.321 23.4074 151.321Z" fill="white"/>
<path d="M33.4566 148.18H22.1515C21.8048 148.18 21.5234 147.899 21.5234 147.552C21.5234 147.206 21.8048 146.924 22.1515 146.924H33.4566C33.8033 146.924 34.0847 147.206 34.0847 147.552C34.0847 147.899 33.8033 148.18 33.4566 148.18Z" fill="white"/>
<defs>
<clipPath id="clip0_8150_29784">
<rect width="50.2449" height="50.2449" fill="white" transform="translate(73.6914 65.9883)"/>
</clipPath>
</defs>
</svg>
